<?xml version="1.0" encoding="utf-8"?>
<!-- Generator: Adobe Illustrator 21.0.0, SVG Export Plug-In . SVG Version: 6.00 Build 0)  -->
<svg version="1.1" id="圖層_1" xmlns="http://www.w3.org/2000/svg" xmlns:xlink="http://www.w3.org/1999/xlink" x="0px" y="0px"
	 viewBox="0 0 1344 518.4" enable-background="new 0 0 1344 518.4" xml:space="preserve">
<rect x="-136" y="-90.2" fill="#38BEE0" width="1642" height="905.9"/>
<path fill="#48D0F2" d="M1526-20.9c0-47.2-60.9-85.5-136-85.5c-63.2,0-116.4,27.1-131.6,63.9c-14.6-3.9-30.6-6.1-47.4-6.1
	c-59.4,0-108.9,26.9-119.1,62.5c-10.9-5.3-24.6-8.4-39.4-8.4c-26.5,0-49.2,10-59.4,24.2c-6.5-0.9-13.3-1.4-20.3-1.4
	c-34.2,0-64.1,11.5-80.4,28.7c-3.9-0.3-7.9-0.5-12-0.5c-39.6,0-73.4,15.7-86.6,37.7C783.8,89.1,771,86,757,86
	c-5.7,0-11.3,0.5-16.5,1.5c-11.1-13.6-33.6-22.9-59.6-22.9c-16.6,0-31.8,3.8-43.6,10.1c-10.5-10.9-29.6-18.2-51.3-18.2
	c-2.7,0-5.4,0.1-8,0.3c-14.9-19.6-46.7-33.2-83.5-33.2c-25.6,0-48.8,6.5-65.5,17.1c-10.8-29.6-53-51.7-103.3-51.7
	c-17.8,0-34.6,2.8-49.4,7.7c-10.7-12.8-32.1-21.5-56.6-21.5c-15.5,0-29.7,3.5-40.8,9.2c-9.6-5.8-21.7-10-35.3-11.9
	c0-0.4,0-0.7,0-1.1c0-46.5-60-84.3-134-84.3c-46.4,0-87.3,14.8-111.3,37.4C-155.4-63.9-194-32-194,5.6c0,29,22.9,54.6,58,70v740
	h1638.9V26.8C1517.5,13.2,1526-3.2,1526-20.9z"/>
<path fill="#62D7F4" d="M1574,121.5c0-52.1-67.2-94.3-150-94.3c-1.5,0-3,0-4.6,0c-8.2-29.7-49.4-52.3-99-52.3
	c-46.8,0-86.2,20.2-97.3,47.4c-4-0.3-8-0.4-12.1-0.4c-55.7,0-101.8,25.5-110.7,58.9c-37.6,0.1-69.1,16.4-77.8,38.4
	c-5.3-0.8-10.7-1.2-16.4-1.2c-21.4,0-40.5,6-53.3,15.5c-15.1-25.9-54.7-44.4-101.2-44.4c-34.9,0-65.9,10.4-85.6,26.6
	c-4-0.3-8-0.5-12.2-0.5c-24.3,0-46.4,6.1-62.6,16c-12.8-5.3-28.1-8.4-44.5-8.4c-38.4,0-70.6,16.8-78.9,39.4c-0.7,0-1.4,0-2.1,0
	c-7.1,0-13.9,0.9-20.1,2.5c-14.2-19.5-45.6-33.1-82-33.1c-5.1,0-10.1,0.3-14.9,0.8c-12.7-18.2-41.6-30.9-75.2-30.9
	c-3.4,0-6.7,0.1-10,0.4c-16.9-13.3-42.9-21.9-72.1-21.9c-17.9,0-34.6,3.2-48.7,8.8c-15.7-7-34.8-11.1-55.5-11.1
	c-8.8,0-17.2,0.7-25.3,2.1c-5-18.4-24.1-33.7-50-41.4C99.9-9.3,34.5-45.6-44.3-45.6c-87.2,0-157.9,44.4-157.9,99.3
	c0,28.4,19,54,49.4,72.1l16.8,689.9h1642V200.5C1546.9,183.6,1574,154.6,1574,121.5z"/>
<path fill="#7DDEF6" d="M1522.4,149.2c0-49.5-63.8-89.7-142.6-89.7c-63.2,0-116.8,25.9-135.5,61.7c-7.6-1.7-15.8-2.6-24.4-2.6
	c-37.4,0-68.4,17.2-74,39.8c-11.2-5.8-25.6-9.3-41.3-9.3c-23.2,0-43.6,7.7-55.1,19.2c-8.8-1.7-18.2-2.6-27.9-2.6
	c-44.5,0-82,19-93.1,44.8c-26.5,1.8-49.3,11.5-62.5,25.2l-8.3,0.8c-8.5-4.7-19-8-30.7-9.4c-8.6-26-45.2-45.5-89-45.5
	c-19.5,0-37.5,3.8-52.3,10.4c-12.3-3.8-26.1-5.9-40.7-5.9c-41.4,0-76.4,17-88.5,40.5c-2.2-0.2-4.4-0.2-6.6-0.2
	c-5.6,0-11,0.5-16.1,1.4c-16.5-22.3-52.4-37.8-94.2-37.8c-10.6,0-20.8,1-30.5,2.9c-18.2-19.1-51.4-31.9-89.3-31.9
	c-10.1,0-19.8,0.9-29,2.6c-12.3-41.6-70.3-73-139.9-73c-26.8,0-51.9,4.7-73.3,12.8C63.4,55.4-3.7,19-84.4,19
	c-91.1,0-165,46.4-165,103.7c0,41.9,39.6,78.1,96.6,94.4l16.8,598.5h1642V191C1516.5,178.5,1522.4,164.3,1522.4,149.2z"/>
<path fill="#98E5F9" d="M1587.5,267.9c0-42.3-54.5-76.5-121.7-76.5c-4.8,0-9.6,0.2-14.3,0.5c-5.5-32.2-48.8-57.2-101.4-57.2
	c-48.3,0-88.7,21.1-99.3,49.4c-4.7-0.8-9.6-1.2-14.7-1.2c-21.8,0-40.8,7.6-50.7,18.7c-13.8-7.7-32.1-12.4-52-12.4
	c-35,0-64.6,14.4-74.6,34.3c-6-0.8-12.3-1.2-18.7-1.2c-40.3,0-74.6,16.1-87.7,38.5c-16.2-6.5-35.4-10.3-56-10.3
	c-43.1,0-80.1,16.4-96,39.9c-2.7-0.2-5.5-0.3-8.3-0.3c-22.3,0-41.9,7.2-53.3,18c-11-9.7-29.1-16-49.5-16c-6.4,0-12.5,0.6-18.3,1.8
	c-17.4-14.1-44.6-23.3-75.2-23.3c-17.2,0-33.3,2.9-47.2,7.9c-13.1-6.6-29.7-10.5-47.8-10.5c-24.9,0-47.1,7.5-61.1,19.1
	c-9-3.9-19.8-6.1-31.6-6.1c-0.2,0-0.5,0-0.7,0c-5.4-27-42-47.8-86.3-47.8c-15.7,0-30.5,2.6-43.2,7.2c-11.6-40.6-68-71.3-135.8-71.3
	c-21.5,0-41.9,3.1-60,8.6c-15.6-48-83.1-84.1-164-84.1c-92.4,0-167.4,47.1-167.4,105.2c0,46.2,47.4,85.5,113.4,99.6v517.3h1642
	V340.1C1553.4,329.7,1587.5,301.3,1587.5,267.9z"/>
<path fill="#B2EDFB" d="M1546.9,351c0-25.9-19.7-48.9-50.3-63.4c1.7-5.3,2.6-10.8,2.6-16.4c0-45-58-81.5-129.6-81.5
	c-62.4,0-114.5,27.7-126.8,64.7c-3.9-0.3-7.8-0.5-11.8-0.5c-24.8,0-47,6.7-62.6,17.3c-14.7-3.5-30.8-5.5-47.5-5.5
	c-46.2,0-86.9,14.8-110.7,37.4c-28.2,3.7-52.6,14.1-68.7,28.4c-6.7-0.9-13.6-1.4-20.6-1.4c-31.5,0-59.5,9.3-77.6,23.7
	c-17.3-21.6-52.9-36.5-94-36.5c-40.7,0-75.9,14.5-93.4,35.8c-20.5,1.3-39.1,6.8-53.6,15c-15.6-9.5-36.8-15.4-60.2-15.4
	c-1.7,0-3.4,0-5,0.1c-8.5-11.3-26.8-19.2-48-19.2c-3.1,0-6.2,0.2-9.2,0.5c-23.2-19.8-60.5-32.7-102.6-32.7c-7.5,0-14.8,0.4-21.9,1.2
	c-24.9-9.4-54.2-14.9-85.4-14.9c-16.1,0-31.7,1.5-46.5,4.2c-17.1-11.1-41-18-67.5-18c-11.5,0-22.5,1.3-32.7,3.7
	c-11.9-41.1-69-72.2-137.7-72.2c-77.3,0-140,39.4-140,88c0,15.9,6.7,30.8,18.4,43.6l0,0v478.5h1642V409.4
	C1531.1,394.9,1546.9,374.1,1546.9,351z"/>
<path fill="#CDF4FE" d="M1598,375.2c0-45.8-59.1-83-132-83c-12.3,0-24.2,1.1-35.5,3c-13.7-20.7-46.2-35.3-84.1-35.3
	c-50.3,0-91.1,25.7-91.1,57.3c0,7.8,2.5,15.3,7,22.1c-9.4,0.1-18.2,1.7-25.9,4.5c-20.3-14.7-50.2-24-83.6-24
	c-59.4,0-107.9,29.4-110.6,66.3c-13.7-4.6-29.4-7.2-46.1-7.2c-43.1,0-79.7,17.5-92.8,41.8c-5.5-1-11.2-1.5-17.2-1.5
	c-21.5,0-40.4,6.9-51.6,17.3c-11.4-5.4-25.6-8.5-40.9-8.5c-23.5,0-44.3,7.5-56.6,18.8c-8.2-3.9-18.3-6.2-29.4-6.2
	c-12.2,0-23.4,2.9-31.9,7.6c-14.6-11.5-37-18.8-62.2-18.8c-27.5,0-51.7,8.8-65.9,22.1l-16,0.3c-6.9-2.3-14.7-3.5-23-3.5
	c-8.4,0-16.4,1.3-23.3,3.7c-4.8-18.5-30.4-32.6-61.2-32.6c-10,0-19.5,1.5-27.9,4.2c-11.5-10.3-27.8-18.4-46.9-22.9
	c-12.7-23.4-42.3-41.9-79.7-49.6c-21.7-29.7-69.5-50.4-124.9-50.4c-11.7,0-23,0.9-33.8,2.6C92,285.2,59.7,273.4,23,273.4
	c-58,0-105,29.6-105,66c0,23.9,20.1,44.7,50.3,56.3c-34.7,17-60.4,41-71.8,68.6l-32.5,0.6v350.7h1642V454.3
	C1559.3,443.7,1598,412.3,1598,375.2z"/>
<path fill="#FFFFFF" d="M1587.5,426.1c0-57.8-74.6-104.7-166.5-104.7c-64.5,0-120.4,23.1-148.1,56.8c-2.4-0.1-4.8-0.1-7.2-0.1
	c-42.5,0-80.8,11.2-107.9,29.1c-9.2-1.4-18.9-2.2-28.9-2.2c-45.9,0-85.8,16.3-105.7,40.3c-8.1-1.1-16.6-1.7-25.2-1.7
	c-41,0-77.2,12.8-99.1,32.4c-19.2-5.3-40.4-8.3-62.7-8.3c-34.8,0-66.9,7.2-92.8,19.3c-6.8-1.6-14.3-2.5-22-2.5
	c-20.1,0-38,5.9-49.6,15.1c-11.9-5.9-27-9.4-43.3-9.4c-26.1,0-48.8,8.9-61,22.1c-15.5-6.2-33.9-9.9-53.7-9.9c-0.9,0-1.8,0-2.7,0
	c-11.6-10.8-29.7-18.7-50.7-21.5c-23.9-26.2-68.7-43.8-120.1-43.8c-35.8,0-68.5,8.6-93,22.6c-18.2,1.6-35.1,5.9-49.5,12.2
	c-8.2-6.6-17.7-12.4-28.3-17.3c0.1-1.2,0.1-2.4,0.1-3.7c0-39.1-45.7-71-103.2-73c-12.1-25.2-49.3-43.5-93.3-43.5
	c-53.8,0-97.5,27.4-97.5,61.3c0,9.9,3.7,19.2,10.3,27.5c-46.7,11-80,39.3-80,72.5c0,27.7,23.2,52,58,65.7v254.1h1642v-222
	c9-14.1,14-29.5,14-45.6c0-11.9-2.7-23.5-7.8-34.4C1557.5,495,1587.5,462.8,1587.5,426.1z"/>
</svg>
